# xmcd
#
# Track frame offsets:
#   150
#   16365
#   32961
#   45044
#   61523
#   78144
#   92535
#   107810
#   121470
#   136613
#   151783
#   169194
#   185076
#   202750
#   217965
#   231349
#   245726
#   264196
#
# Disc length: 3743 seconds
#
# Revision: 0
# Processed by: cddbd v1.5.2PL0 Copyright (c) Steve Scherf et al.
# Submitted via: uFREEDB ActiveX Control 1.5
#
DISCID=da0e9d12
DTITLE=Cia da Vanera - A banda do quadro pintado
DYEAR=2014
DGENRE=Alternative
TTITLE0=Tenteando um pelanqueio
TTITLE1=Coisas desse chão
TTITLE2=Quadro Pintado
TTITLE3=Venerosa
TTITLE4=Grudado nas Crinas
TTITLE5=Arroz com Charque, pão com banha
TTITLE6=Balança Bigiu
TTITLE7=Pinga boa, bailçao e mulher
TTITLE8=De a cavalo
TTITLE9=Graçonete
TTITLE10=Costelada
TTITLE11=Pra Variar
TTITLE12=Peleando por China
TTITLE13=Tô pensando em voçê
TTITLE14=Para tudo ai
TTITLE15=Cheitão de chucro
TTITLE16=Mentira
TTITLE17=China Maria
EXTD=
EXTT0=
EXTT1=
EXTT2=
EXTT3=
EXTT4=
EXTT5=
EXTT6=
EXTT7=
EXTT8=
EXTT9=
EXTT10=
EXTT11=
EXTT12=
EXTT13=
EXTT14=
EXTT15=
EXTT16=
EXTT17=
PLAYORDER=
